<svg width="107" height="16" viewBox="0 0 107 16" fill="none" xmlns="http://www.w3.org/2000/svg">
<path d="M0.880682 2.34375H5.41193V15H7.59943V2.34375H12.1378V0.454545H0.880682V2.34375ZM16.5785 8.52273C16.5785 6.78267 17.6793 5.78835 19.1921 5.78835C20.6552 5.78835 21.5288 6.71875 21.5288 8.31676V15H23.6523V8.06108C23.6523 5.34091 22.1609 3.94886 19.9165 3.94886C18.2191 3.94886 17.1964 4.6875 16.685 5.86648H16.5501V0.454545H14.4549V15H16.5785V8.52273ZM31.1879 15.2202C33.5671 15.2202 35.2504 14.0483 35.7333 12.2727L33.7234 11.9105C33.3398 12.9403 32.4165 13.4659 31.2092 13.4659C29.391 13.4659 28.1694 12.2869 28.1126 10.1847H35.8683V9.43182C35.8683 5.49006 33.5103 3.94886 31.0387 3.94886C27.9989 3.94886 25.9961 6.2642 25.9961 9.61648C25.9961 13.0043 27.9705 15.2202 31.1879 15.2202ZM28.1197 8.59375C28.2049 7.04545 29.3271 5.70312 31.0529 5.70312C32.7006 5.70312 33.7802 6.92472 33.7873 8.59375H28.1197ZM38.2244 15H40.348V8.27415C40.348 6.80398 41.3778 5.78125 42.5852 5.78125C43.7642 5.78125 44.581 6.5625 44.581 7.74858V15H46.6974V8.04688C46.6974 6.73295 47.5 5.78125 48.8849 5.78125C50.0071 5.78125 50.9304 6.40625 50.9304 7.88352V15H53.054V7.68466C53.054 5.19176 51.6619 3.94886 49.6875 3.94886C48.1179 3.94886 46.9389 4.7017 46.4134 5.86648H46.2997C45.8239 4.6733 44.8224 3.94886 43.3665 3.94886C41.9247 3.94886 40.8523 4.66619 40.3977 5.86648H40.2628V4.09091H38.2244V15ZM60.6019 15.2202C62.9812 15.2202 64.6644 14.0483 65.1474 12.2727L63.1374 11.9105C62.7539 12.9403 61.8306 13.4659 60.6232 13.4659C58.805 13.4659 57.5835 12.2869 57.5266 10.1847H65.2823V9.43182C65.2823 5.49006 62.9244 3.94886 60.4528 3.94886C57.413 3.94886 55.4102 6.2642 55.4102 9.61648C55.4102 13.0043 57.3846 15.2202 60.6019 15.2202ZM57.5337 8.59375C57.619 7.04545 58.7411 5.70312 60.467 5.70312C62.1147 5.70312 63.1942 6.92472 63.2013 8.59375H57.5337ZM67.8089 15H69.8828V13.3026H70.0604C70.4439 13.9986 71.2251 15.2131 73.2138 15.2131C75.8558 15.2131 77.7734 13.0966 77.7734 9.56676C77.7734 6.02983 75.8274 3.94886 73.1925 3.94886C71.1683 3.94886 70.4368 5.18466 70.0604 5.85938H69.9325V0.454545H67.8089V15ZM69.8899 9.54545C69.8899 7.26562 70.8842 5.75284 72.7379 5.75284C74.6626 5.75284 75.6286 7.37926 75.6286 9.54545C75.6286 11.733 74.6342 13.402 72.7379 13.402C70.9126 13.402 69.8899 11.8395 69.8899 9.54545ZM83.3327 15.2415C85.1367 15.2415 86.1523 14.3253 86.5572 13.5085H86.6424V15H88.7163V7.75568C88.7163 4.58097 86.2163 3.94886 84.4833 3.94886C82.5089 3.94886 80.6907 4.74432 79.9805 6.73295L81.9762 7.1875C82.2887 6.41335 83.0842 5.66761 84.5117 5.66761C85.8825 5.66761 86.5856 6.38494 86.5856 7.62074V7.67045C86.5856 8.4446 85.7901 8.4304 83.8299 8.65767C81.7631 8.89915 79.6467 9.43892 79.6467 11.9176C79.6467 14.0625 81.2589 15.2415 83.3327 15.2415ZM83.7944 13.5369C82.5941 13.5369 81.7276 12.9972 81.7276 11.946C81.7276 10.8097 82.7362 10.4048 83.9648 10.2415C84.6538 10.1491 86.2873 9.96449 86.5927 9.65909V11.0653C86.5927 12.358 85.5629 13.5369 83.7944 13.5369ZM98.4553 10.4759C98.4624 12.3295 97.0845 13.2102 95.8913 13.2102C94.5774 13.2102 93.6683 12.2585 93.6683 10.7741V4.09091H91.5447V11.0298C91.5447 13.7358 93.0291 15.142 95.1243 15.142C96.7649 15.142 97.88 14.2756 98.3842 13.1108H98.4979V15H100.586V4.09091H98.4553V10.4759ZM104.838 15.1349C105.613 15.1349 106.259 14.5028 106.259 13.7145C106.259 12.9403 105.613 12.3011 104.838 12.3011C104.057 12.3011 103.418 12.9403 103.418 13.7145C103.418 14.5028 104.057 15.1349 104.838 15.1349Z" fill="white"/>
</svg>
